<?xml version="1.0" encoding="UTF-8"?>
<svg version="1.1" xmlns="http://www.w3.org/2000/svg" width="512" height="512">
<path d="M0 0 C1.24857285 -0.00671722 2.49714569 -0.01343445 3.78355408 -0.02035522 C7.17383584 -0.03598507 10.56387252 -0.04270311 13.95417309 -0.0439868 C16.07714809 -0.04541673 18.20009799 -0.04970179 20.32306671 -0.05498123 C27.74224969 -0.07341658 35.16136128 -0.08165876 42.58056641 -0.08007812 C49.47846283 -0.07887379 56.37604789 -0.10004973 63.27386546 -0.13156545 C69.21726211 -0.15774595 75.16055698 -0.16844491 81.10401082 -0.16716731 C84.64489966 -0.16665882 88.18551029 -0.17228063 91.72634125 -0.19352341 C95.67054903 -0.21654805 99.61432976 -0.20737403 103.55859375 -0.1953125 C104.72239059 -0.20655151 105.88618744 -0.21779053 107.08525085 -0.22937012 C114.53366128 -0.17146858 119.06187651 0.74859408 124.72753906 5.81787109 C130.17984133 12.77292805 130.7162474 18.6611121 130.02050781 27.29052734 C128.97014532 33.02932606 126.4639694 36.36568061 122.03222656 40.06396484 C115.86123752 43.82647078 109.62932967 43.57846207 102.63769531 43.56176758 C100.92910088 43.5696077 100.92910088 43.5696077 99.18598938 43.5776062 C96.71591568 43.58783462 94.24582049 43.59362458 91.77572632 43.59548759 C87.85632338 43.59915779 83.93717199 43.61590543 80.01782227 43.63624573 C70.27725016 43.685302 60.5366306 43.71620694 50.79595947 43.73754883 C42.5721335 43.75560033 34.3485353 43.78516097 26.12481689 43.83159065 C23.53511445 43.84318137 20.94538024 43.84917048 18.35565186 43.84927177 C-5.15805823 43.59122229 -5.15805823 43.59122229 -27.22949219 50.91552734 C-27.897146 51.26107666 -28.5647998 51.60662598 -29.25268555 51.96264648 C-42.75430625 59.24630818 -53.26520297 71.63318769 -57.97949219 86.29052734 C-60.9879303 97.15843779 -61.4108685 107.3609374 -61.36767578 118.54833984 C-61.37175062 120.34047768 -61.37709757 122.132613 -61.38360596 123.92474365 C-61.39717699 128.75121073 -61.3920235 133.57748347 -61.3824687 138.40395355 C-61.37481875 143.47959375 -61.38193242 148.55521845 -61.3866272 153.63085938 C-61.39206932 162.15090897 -61.38493381 170.67088029 -61.37060547 179.19091797 C-61.35428197 189.01008694 -61.35957157 198.82906897 -61.37608469 208.64823341 C-61.3897437 217.11237489 -61.3915977 225.57646042 -61.38376868 234.04060936 C-61.37911636 239.08116083 -61.37839954 244.12162473 -61.38837814 249.16217041 C-61.39711012 253.90328882 -61.39091335 258.64416862 -61.37369537 263.38526154 C-61.36976355 265.11450049 -61.37080709 266.84375988 -61.37748337 268.57299042 C-61.42366998 281.76227182 -60.67468883 294.62664802 -54.35449219 306.54052734 C-54.00894287 307.20818115 -53.66339355 307.87583496 -53.30737305 308.5637207 C-46.02371135 322.0653414 -33.63683184 332.57623813 -18.97949219 337.29052734 C-8.11158174 340.29896546 2.09091787 340.72190366 13.27832031 340.67871094 C15.07045815 340.68278577 16.86259347 340.68813273 18.65472412 340.69464111 C23.4811912 340.70821214 28.30746394 340.70305866 33.13393402 340.69350386 C38.20957422 340.6858539 43.28519892 340.69296757 48.36083984 340.69766235 C56.88088944 340.70310447 65.40086076 340.69596897 73.92089844 340.68164062 C83.74006741 340.66531712 93.55904943 340.67060673 103.37821388 340.68711984 C111.84235535 340.70077886 120.30644088 340.70263286 128.77058983 340.69480383 C133.8111413 340.69015151 138.8516052 340.6894347 143.89215088 340.6994133 C148.63326929 340.70814527 153.37414909 340.7019485 158.115242 340.68473053 C159.84448096 340.68079871 161.57374035 340.68184225 163.30297089 340.68851852 C176.49225229 340.73470514 189.35662849 339.98572399 201.27050781 333.66552734 C201.93816162 333.31997803 202.60581543 332.97442871 203.29370117 332.6184082 C217.92772044 324.72385629 227.84893831 311.55008575 232.79646301 295.82411194 C235.80835337 284.16786993 235.4305671 272.4213796 235.40063286 260.46092606 C235.39144804 256.45004733 235.40133485 252.43963635 235.41725159 248.42880249 C235.45317583 238.47867438 235.45967349 228.52855638 235.45715332 218.57836914 C235.45543863 210.81743621 235.46262597 203.05673841 235.49713188 195.29587114 C235.51652006 190.67661029 235.50648916 186.05793252 235.49180603 181.43862915 C235.50070974 179.017675 235.51078387 176.59672478 235.5222168 174.17578125 C235.5124733 173.08574799 235.5027298 171.99571472 235.49269104 170.87265015 C235.55892342 163.83753185 236.50662956 158.07224935 241.43237972 152.77103615 C247.44264656 147.43096037 253.01922088 146.82788833 260.79394531 146.98583984 C266.36709421 147.51211783 270.00909266 149.09826127 273.80175781 153.23193359 C277.49289356 157.95902489 279.14167246 161.41722222 279.16094971 167.48565674 C279.16665985 168.56194336 279.17237 169.63822998 279.17825317 170.74713135 C279.17937103 171.92837585 279.18048889 173.10962036 279.18164062 174.32666016 C279.18660553 175.57096802 279.19157043 176.81527588 279.19668579 178.09729004 C279.20880184 181.51538161 279.21625622 184.9334119 279.22069645 188.35151768 C279.22363136 190.49259515 279.22773728 192.63366733 279.23220062 194.77474213 C279.24588418 201.48900745 279.25554287 208.20326058 279.25940251 214.91753888 C279.26386551 222.63748549 279.28132733 230.35725347 279.31040311 238.07714581 C279.33214495 244.0604097 279.34211364 250.04362385 279.34344363 256.02692676 C279.3444841 259.59162184 279.35022609 263.15614925 279.36826324 266.72080231 C279.51354335 297.19744052 274.90423084 322.88129746 255.02050781 347.29052734 C254.44558594 348.01884766 253.87066406 348.74716797 253.27832031 349.49755859 C237.3359195 368.83439402 211.70299443 381.28277984 187.02050781 384.29052734 C180.57340579 384.66574166 174.10566867 384.57475035 167.65039062 384.56518555 C165.70268561 384.56953907 163.75498229 384.57472435 161.80728149 384.58067322 C156.54261135 384.59400702 151.27801324 384.59464805 146.01332951 384.59210992 C141.60521332 384.59103616 137.19711147 384.59593401 132.78899837 384.60071534 C122.38113112 384.61179159 111.97329997 384.61225885 101.56542969 384.60620117 C90.85964958 384.60016548 80.15400104 384.61246651 69.44824338 384.63377124 C60.22917131 384.65143695 51.01014093 384.65738069 41.79105258 384.6541335 C36.29714041 384.65232806 30.80332206 384.65488237 25.30942535 384.66884804 C20.13827625 384.6815025 14.96733083 384.6794108 9.79618454 384.66643715 C7.90933282 384.66408814 6.02246642 384.66674516 4.13563156 384.67506027 C-22.85010592 384.78531374 -46.75499669 377.4090038 -67.97949219 360.29052734 C-68.71039063 359.71431641 -69.44128906 359.13810547 -70.19433594 358.54443359 C-89.52128457 342.58534928 -101.9709332 316.97967326 -104.97949219 292.29052734 C-105.35470651 285.84342533 -105.26371519 279.3756882 -105.25415039 272.92041016 C-105.25850392 270.97270514 -105.26368919 269.02500183 -105.26963806 267.07730103 C-105.28297186 261.81263088 -105.2836129 256.54803277 -105.28107476 251.28334904 C-105.28000101 246.87523285 -105.28489885 242.467131 -105.28968018 238.0590179 C-105.30075643 227.65115065 -105.3012237 217.2433195 -105.29516602 206.83544922 C-105.28913032 196.12966912 -105.30143135 185.42402057 -105.32273608 174.71826291 C-105.34040179 165.49919084 -105.34634554 156.28016046 -105.34309834 147.06107211 C-105.3412929 141.56715994 -105.34384722 136.07334159 -105.35781288 130.57944489 C-105.37046734 125.40829578 -105.36837564 120.23735036 -105.35540199 115.06620407 C-105.35305298 113.17935235 -105.35571 111.29248595 -105.36402512 109.40565109 C-105.42171521 95.285373 -104.1815155 82.11519316 -99.29199219 68.72802734 C-99.03853027 68.02605225 -98.78506836 67.32407715 -98.52392578 66.60083008 C-94.24830593 55.24491712 -87.86786477 45.49086084 -79.97949219 36.29052734 C-79.50125 35.67951172 -79.02300781 35.06849609 -78.53027344 34.43896484 C-60.1435358 11.36334568 -28.68872119 -0.02249949 0 0 Z " fill="#000000" transform="translate(168.9794921875,63.70947265625)"/>
<path d="M0 0 C13.29648781 10.32865715 22.66533773 22.56830376 25.6171875 39.55078125 C27.36028917 55.25648302 25.28398289 71.78770435 16 85 C9.0302744 93.5780461 0.90531556 101.24828493 -6.91137695 109.04174805 C-9.06512522 111.19011866 -11.21345226 113.34380694 -13.36132812 115.49804688 C-14.75228354 116.88834168 -16.14354903 118.27832636 -17.53515625 119.66796875 C-18.16559341 120.30043015 -18.79603058 120.93289154 -19.4455719 121.58451843 C-22.46573692 124.58910263 -25.52837379 127.48931283 -28.76377869 130.26179504 C-32.83863798 133.81220347 -36.67734794 137.5490367 -40.48242188 141.38476562 C-41.53291466 142.43744881 -41.53291466 142.43744881 -42.60462952 143.51139832 C-44.11108354 145.02163088 -45.61638226 146.53301659 -47.12062073 148.04545593 C-49.50699953 150.44470583 -51.89658216 152.84072388 -54.2869873 155.23596191 C-59.36081378 160.321165 -64.43069815 165.41028695 -69.5 170.5 C-75.37855544 176.40222504 -81.25875291 182.30279452 -87.14320374 188.19914246 C-89.48715071 190.54952954 -91.82804378 192.9029287 -94.16882324 195.25646973 C-95.61825855 196.70954057 -97.06783614 198.16246951 -98.51757812 199.61523438 C-99.15885147 200.26167404 -99.80012482 200.90811371 -100.46083069 201.57414246 C-104.2200118 205.3337554 -108.10639411 208.87581631 -112.12865448 212.35156441 C-114.77315453 214.68105832 -117.22998014 217.14115173 -119.703125 219.65307617 C-120.21503891 220.17126923 -120.72695282 220.68946228 -121.25437927 221.22335815 C-122.35152411 222.33420689 -123.44756533 223.44614657 -124.54257202 224.55910301 C-126.29143594 226.33504628 -128.04500843 228.10621409 -129.80004883 229.87605286 C-134.78538178 234.90367217 -139.76813532 239.93374251 -144.73388672 244.98071289 C-173.64123164 274.34543313 -198.30047991 291.81734022 -239.5378418 299.22241211 C-242.82696087 299.81510582 -246.11164491 300.4289992 -249.39648438 301.04492188 C-251.520602 301.43355819 -253.64494388 301.82097118 -255.76953125 302.20703125 C-256.73437943 302.38820999 -257.6992276 302.56938873 -258.6933136 302.75605774 C-267.63238898 304.33534949 -276.86611863 305.75755325 -285 301 C-290.38880334 297.11644899 -294.15355915 293.57794554 -296 287 C-296.32729016 280.45510083 -295.37181871 274.41524977 -294.171875 267.9921875 C-293.98159729 266.94910431 -293.79131958 265.90602112 -293.59527588 264.83132935 C-293.19184176 262.6304004 -292.78485125 260.43012072 -292.37451172 258.23046875 C-291.75615561 254.90807375 -291.1526682 251.58322556 -290.55078125 248.2578125 C-283.98269627 212.41887015 -271.11682112 188.71133672 -245.37963867 163.17382812 C-242.93412423 160.74664954 -240.49678651 158.31148446 -238.06054688 155.875 C-236.48745094 154.30681827 -234.9138988 152.73909402 -233.33984375 151.171875 C-232.62191147 150.45505554 -231.90397919 149.73823608 -231.16429138 148.99969482 C-227.21414457 145.08601391 -223.16085693 141.36532927 -218.95289612 137.73175049 C-215.66284981 134.81426848 -212.58796059 131.69090565 -209.5 128.5625 C-208.82001953 127.87873291 -208.14003906 127.19496582 -207.43945312 126.49047852 C-205.29049074 124.32942945 -203.14482721 122.16515274 -201 120 C-198.16966163 117.14283983 -195.33587327 114.28916546 -192.5 111.4375 C-191.54963867 110.47469116 -191.54963867 110.47469116 -190.58007812 109.49243164 C-187.48323378 106.37893323 -184.33843228 103.38367107 -181.01367188 100.51367188 C-176.91116914 96.97057876 -173.08866318 93.19936717 -169.28125 89.34375 C-168.57907349 88.63778687 -167.87689697 87.93182373 -167.15344238 87.20446777 C-164.93315397 84.97208642 -162.71616045 82.73647889 -160.5 80.5 C-157.57590521 77.54909622 -154.64836943 74.60166797 -151.71875 71.65625 C-151.063302 70.99250366 -150.407854 70.32875732 -149.73254395 69.64489746 C-145.9459954 65.83862856 -142.03813442 62.25748806 -137.97473145 58.74987793 C-134.6764163 55.82712664 -131.59475263 52.69778665 -128.5 49.5625 C-127.82001953 48.87873291 -127.14003906 48.19496582 -126.43945312 47.49047852 C-124.29049074 45.32942945 -122.14482721 43.16515274 -120 41 C-117.16966163 38.14283983 -114.33587327 35.28916546 -111.5 32.4375 C-110.86642578 31.79562744 -110.23285156 31.15375488 -109.58007812 30.49243164 C-105.80380648 26.69585213 -101.91316053 23.10457755 -97.83842468 19.62950134 C-95.29043481 17.37107163 -92.97040653 14.92167913 -90.625 12.45654297 C-66.86426682 -12.37316716 -29.65539943 -20.14397254 0 0 Z M-61 45 C-57.83335933 49.05725836 -54.51408006 52.39172914 -50.6015625 55.72265625 C-46.99297351 58.88152619 -43.5002784 62.1595266 -40 65.4375 C-39.31631348 66.07751953 -38.63262695 66.71753906 -37.92822266 67.37695312 C-36.28455278 68.91698315 -34.64177479 70.4579502 -33 72 C-32.5265918 71.59007812 -32.05318359 71.18015625 -31.56542969 70.7578125 C-30.94055664 70.21898437 -30.31568359 69.68015625 -29.671875 69.125 C-29.0540918 68.59132812 -28.43630859 68.05765625 -27.79980469 67.5078125 C-26.33185506 66.27801639 -24.79874007 65.12635642 -23.25 64 C-19.85568438 60.98283056 -18.29434771 58.17171176 -17.6796875 53.63671875 C-17.41264225 47.77062472 -18.19784735 43.54701882 -22 39 C-26.8646353 34.00856141 -31.23117638 31.01235445 -38.3125 30.625 C-48.5928238 30.96428461 -54.33532626 37.84367 -61 45 Z M-90 76 C-90.70125 76.71285156 -91.4025 77.42570312 -92.125 78.16015625 C-93.08319293 79.12774323 -94.04153439 80.09518313 -95 81.0625 C-95.68642578 81.76149414 -95.68642578 81.76149414 -96.38671875 82.47460938 C-98.97656646 85.08219577 -101.62468484 87.5524527 -104.4296875 89.92749023 C-109.72907575 94.54817575 -114.65193315 99.53971812 -119.60189819 104.5267334 C-121.34974922 106.287525 -123.10085972 108.04501864 -124.8527832 109.80175781 C-128.57136351 113.53168125 -132.28598204 117.26553437 -136 121 C-140.30901429 125.33273773 -144.61970377 129.66378153 -148.93466187 133.99060059 C-150.6470917 135.70944044 -152.35644512 137.43129812 -154.06567383 139.15332031 C-158.85381684 143.96387544 -163.67304177 148.6592427 -168.8354187 153.07141113 C-174.16610877 157.82092529 -179.16125677 162.95113724 -184.22265625 167.984375 C-185.15837873 168.91398418 -185.15837873 168.91398418 -186.11300468 169.86237335 C-189.41137069 173.1400026 -192.7065371 176.42081133 -195.99926758 179.70410156 C-199.37519131 183.06895403 -202.76263715 186.42195501 -206.15279484 189.77245712 C-208.78226472 192.37563385 -211.40266832 194.9877995 -214.02081108 197.60236359 C-215.26480954 198.84153329 -216.51214528 200.07736315 -217.76304817 201.30956268 C-231.99302125 215.33979812 -239.66849236 229.41605589 -244 249 C-244 250.32 -244 251.64 -244 253 C-220.97838815 249.29313029 -204.32010019 242.86859685 -187.87109375 225.84375 C-185.79668443 223.73458231 -183.62812567 221.79614819 -181.37890625 219.875 C-175.79823342 215.04662214 -170.67906326 209.74943552 -165.5 204.5 C-154.46210692 193.31212584 -154.46210692 193.31212584 -150.03125 189.53125 C-144.36901187 184.69366604 -139.22820892 179.295982 -134 174 C-128.17578649 168.10028743 -122.38944286 162.24095279 -116.078125 156.85546875 C-111.34434772 152.6288819 -106.95574442 148.01628834 -102.5 143.5 C-96.84870889 137.77192008 -91.22244603 132.10339926 -85.09960938 126.87255859 C-80.36651144 122.65129567 -75.96385325 118.06493515 -71.5 113.5625 C-70.47679861 112.5342702 -69.45336267 111.50627374 -68.4296875 110.47851562 C-65.95042001 107.98835662 -63.47432462 105.49507167 -61 103 C-61.77561279 102.2251123 -62.55122559 101.45022461 -63.3503418 100.65185547 C-65.03727575 98.9635226 -66.71924073 97.27019946 -68.39453125 95.5703125 C-73.42155537 90.48643996 -78.53054625 85.60462559 -84 81 C-84.60328125 80.49210937 -85.2065625 79.98421875 -85.828125 79.4609375 C-87.21406619 78.30166893 -88.60623786 77.14985377 -90 76 Z " fill="#000000" transform="translate(444,55)"/>
</svg>
